<svg viewBox="0 0 40 40" fill="none" xmlns="http://www.w3.org/2000/svg">
<g filter="url(#filter0_d_108_1713)">
<path d="M31.9164 20.9732C31.9078 21.0476 31.8935 21.1191 31.8792 21.1935C31.8792 21.2113 31.8734 21.2292 31.8706 21.247C31.8477 21.3631 31.8219 21.4762 31.7903 21.5923C31.7416 21.7768 31.6843 21.9613 31.6184 22.1429C31.6041 22.1905 31.5869 22.2351 31.5669 22.2798C31.5124 22.4167 31.4551 22.5506 31.3921 22.6845C31.372 22.7292 31.3491 22.7738 31.3262 22.8185C31.2832 22.9078 31.2345 22.9911 31.1886 23.0804C31.1399 23.1667 31.0883 23.253 31.0339 23.3363C30.9823 23.4197 30.925 23.503 30.8677 23.5833C30.6958 23.8304 30.501 24.0655 30.2889 24.2857L20.0198 34.9732L19.9998 34.997C17.5614 32.4554 16.6187 28.9464 17.1775 25.6607C17.527 23.5982 18.4668 21.622 19.9998 20.0268L27.2231 12.5089L30.2918 15.7054C30.5411 15.9643 30.7617 16.2411 30.9566 16.5298C31.0683 16.6935 31.1686 16.8661 31.2631 17.0387C31.3319 17.1697 31.3978 17.3006 31.458 17.4345C31.4981 17.5238 31.5382 17.6161 31.5697 17.7083C31.6041 17.8006 31.6385 17.8899 31.67 17.9822C31.733 18.1667 31.7846 18.3572 31.8305 18.5476C31.862 18.6875 31.8906 18.8304 31.9164 18.9732C31.925 19.0238 31.9307 19.0714 31.9393 19.1191C31.9508 19.2143 31.9623 19.3095 31.9709 19.4048C32.0196 19.9226 32.0024 20.4464 31.9221 20.9613L31.9164 20.9732Z" fill="url(#paint0_linear_108_1713)"/>
<path d="M31.6173 22.1429C31.5514 22.3274 31.4769 22.5089 31.3938 22.6845C31.3738 22.7292 31.3509 22.7738 31.328 22.8185C31.285 22.9077 31.2363 22.9911 31.1904 23.0804C31.1417 23.1667 31.0901 23.253 31.0357 23.3363C30.9841 23.4196 30.9268 23.503 30.8695 23.5833C30.6976 23.8304 30.5028 24.0655 30.2907 24.2857L27.222 27.4792L22.8869 22.9673L20.0302 19.994L20.0015 19.9643C16.036 15.8363 16.0303 9.14881 19.9872 5.0119C19.9929 5.00595 19.9958 5.00298 19.9987 5L27.2191 12.5179L30.2907 15.7113C31.9612 17.4524 32.4053 19.9851 31.6231 22.1488L31.6173 22.1429Z" fill="url(#paint1_linear_108_1713)"/>
<path d="M22.7196 29.8631C22.3156 31.7292 21.4159 33.503 20.0291 34.9613C20.0291 34.9643 20.0234 34.9673 20.0205 34.9702C20.0205 34.9702 20.0177 34.9732 20.0177 34.9762L19.9976 35L9.70842 24.2887C7.43053 21.9196 7.43053 18.0774 9.70842 15.7083L12.6138 12.6845L12.7771 12.5149L19.9976 20.0327C22.562 22.7024 23.4703 26.4375 22.7253 29.8661L22.7196 29.8631Z" fill="url(#paint2_linear_108_1713)"/>
<path d="M31.6203 22.1429C31.5544 22.3274 31.4799 22.5089 31.3968 22.6845C31.3767 22.7292 31.3538 22.7738 31.3309 22.8184C31.2879 22.9077 31.2392 22.9911 31.1934 23.0804C31.1446 23.1667 31.0931 23.253 31.0386 23.3363C30.987 23.4196 30.9298 23.503 30.8724 23.5833C30.7005 23.8304 30.5057 24.0655 30.2937 24.2857L20.0245 34.9762C20.0245 34.9762 20.0331 34.9673 20.0389 34.9583C20.2996 34.6726 21.8927 32.8393 22.7293 29.8601C23.2565 27.9821 23.4858 25.6548 22.8898 22.9702C22.5918 21.622 22.0847 20.1845 21.3053 18.6726C16.4716 9.29167 19.738 5.30059 19.9873 5.01488C19.993 5.00893 19.9959 5.00595 19.9987 5.00298H20.0016L27.2221 12.5149L30.2937 15.7083C31.9641 17.4494 32.4082 19.9821 31.626 22.1458L31.6203 22.1429Z" fill="url(#paint3_linear_108_1713)"/>
<path d="M31.6184 22.1429C31.5525 22.3274 31.478 22.5089 31.3949 22.6845C31.3749 22.7292 31.3519 22.7738 31.329 22.8185C31.286 22.9077 31.2373 22.9911 31.1915 23.0804C31.1428 23.1667 31.0912 23.253 31.0368 23.3363C30.9852 23.4196 30.9279 23.503 30.8706 23.5833C30.6987 23.8304 30.5038 24.0655 30.2918 24.2857L27.2231 27.4792C29.2746 25.3452 29.3147 22.1429 23.6415 16.2381C20.2433 12.7024 19.6101 9.36607 19.6502 7.2619C19.6731 5.91667 19.974 5.07143 19.9998 5L27.2202 12.5179L30.2918 15.7113C31.9622 17.4524 32.4064 19.9851 31.6242 22.1488L31.6184 22.1429Z" fill="url(#paint4_linear_108_1713)"/>
<path d="M20.0205 34.9702C20.0205 34.9702 20.0177 34.9732 20.0177 34.9762L19.9976 35L9.70842 24.2887C7.43053 21.9196 7.43053 18.0774 9.70842 15.7083L12.6138 12.6845C11.8889 13.5089 9.28149 17.2976 15.4905 23.7589C16.1295 24.4226 16.6882 25.0595 17.1782 25.6637C21.9775 31.6012 20.1351 34.7917 20.0263 34.9732L20.0205 34.9702Z" fill="url(#paint5_linear_108_1713)"/>
</g>
<defs>
<filter id="filter0_d_108_1713" x="3" y="0" width="34" height="40" filterUnits="userSpaceOnUse" color-interpolation-filters="sRGB">
<feFlood flood-opacity="0" result="BackgroundImageFix"/>
<feColorMatrix in="SourceAlpha" type="matrix" values="0 0 0 0 0 0 0 0 0 0 0 0 0 0 0 0 0 0 127 0" result="hardAlpha"/>
<feOffset/>
<feGaussianBlur stdDeviation="2.5"/>
<feComposite in2="hardAlpha" operator="out"/>
<feColorMatrix type="matrix" values="0 0 0 0 1 0 0 0 0 0.894118 0 0 0 0 0.466667 0 0 0 0.7 0"/>
<feBlend mode="normal" in2="BackgroundImageFix" result="effect1_dropShadow_108_1713"/>
<feBlend mode="normal" in="SourceGraphic" in2="effect1_dropShadow_108_1713" result="shape"/>
</filter>
<linearGradient id="paint0_linear_108_1713" x1="33.1771" y1="10.5298" x2="23.1323" y2="23.9415" gradientUnits="userSpaceOnUse">
<stop stop-color="#FFF8C7"/>
<stop offset="0.52" stop-color="#FED94E"/>
<stop offset="0.68" stop-color="#E6B635"/>
<stop offset="1" stop-color="#B26800"/>
</linearGradient>
<linearGradient id="paint1_linear_108_1713" x1="39.9152" y1="22.7054" x2="15.193" y2="13.6227" gradientUnits="userSpaceOnUse">
<stop stop-color="#FFF8C7"/>
<stop offset="0.52" stop-color="#FED94E"/>
<stop offset="0.68" stop-color="#E6B635"/>
<stop offset="1" stop-color="#B26800"/>
</linearGradient>
<linearGradient id="paint2_linear_108_1713" x1="20.7798" y1="20.0982" x2="4.55386" y2="32.6156" gradientUnits="userSpaceOnUse">
<stop stop-color="#B26800"/>
<stop offset="0.32" stop-color="#E6B635"/>
<stop offset="0.48" stop-color="#FED94E"/>
<stop offset="1" stop-color="#FFF8C7"/>
</linearGradient>
<linearGradient id="paint3_linear_108_1713" x1="13.4573" y1="-4.27976" x2="27.1306" y2="27.1837" gradientUnits="userSpaceOnUse">
<stop stop-color="#FFF8C7"/>
<stop offset="0.43" stop-color="#FED94E"/>
<stop offset="0.62" stop-color="#E6B635"/>
<stop offset="1" stop-color="#B26800"/>
</linearGradient>
<linearGradient id="paint4_linear_108_1713" x1="19.9367" y1="2.44345" x2="33.9235" y2="30.0575" gradientUnits="userSpaceOnUse">
<stop stop-color="#FFF8C7"/>
<stop offset="0.11" stop-color="#FEF4B8"/>
<stop offset="0.31" stop-color="#FEEA93"/>
<stop offset="0.58" stop-color="#FEDB58"/>
<stop offset="0.63" stop-color="#FED94E"/>
<stop offset="0.75" stop-color="#E2AF31"/>
<stop offset="0.92" stop-color="#BF7C0D"/>
<stop offset="1" stop-color="#B26800"/>
</linearGradient>
<linearGradient id="paint5_linear_108_1713" x1="9.43049" y1="15.7321" x2="22.1418" y2="35.6135" gradientUnits="userSpaceOnUse">
<stop stop-color="#B26800"/>
<stop offset="0.32" stop-color="#E6B635"/>
<stop offset="0.48" stop-color="#FED94E"/>
<stop offset="1" stop-color="#FFF8C7"/>
</linearGradient>
</defs>
</svg>
