<svg viewBox="0 0 40 40" fill="none" xmlns="http://www.w3.org/2000/svg">
<g filter="url(#filter0_d_108_1715)">
<path d="M31.9172 20.9716C31.9086 21.046 31.8942 21.1174 31.8799 21.1918C31.8799 21.2097 31.8742 21.2276 31.8713 21.2454C31.8484 21.3615 31.8226 21.4745 31.7911 21.5906C31.7424 21.7751 31.6851 21.9596 31.6192 22.1411C31.6049 22.1888 31.5877 22.2334 31.5676 22.278C31.5132 22.4149 31.4559 22.5488 31.3929 22.6828C31.3728 22.7274 31.3499 22.772 31.327 22.8167C31.284 22.906 31.2353 22.9893 31.1894 23.0786C31.1407 23.1649 31.0892 23.2512 31.0347 23.3345C30.9832 23.4178 30.9259 23.5011 30.8686 23.5815C30.6967 23.8285 30.5018 24.0636 30.2898 24.2838L20.0215 34.9702L20.0015 34.994C17.5633 32.4526 16.6207 28.944 17.1794 25.6587C17.5289 23.5964 18.4687 21.6204 20.0015 20.0253L27.2242 12.5082L30.2927 15.7043C30.5419 15.9632 30.7626 16.24 30.9574 16.5286C31.0691 16.6923 31.1694 16.8649 31.2639 17.0375C31.3327 17.1684 31.3986 17.2994 31.4588 17.4333C31.4989 17.5226 31.539 17.6148 31.5705 17.7071C31.6049 17.7993 31.6393 17.8886 31.6708 17.9808C31.7338 18.1654 31.7854 18.3558 31.8312 18.5463C31.8627 18.6861 31.8914 18.829 31.9172 18.9718C31.9258 19.0224 31.9315 19.07 31.9401 19.1176C31.9515 19.2129 31.963 19.3081 31.9716 19.4033C32.0203 19.9211 32.0031 20.4449 31.9229 20.9597L31.9172 20.9716Z" fill="url(#paint0_linear_108_1715)"/>
<path d="M31.6181 22.1412C31.5522 22.3257 31.4777 22.5072 31.3946 22.6828C31.3746 22.7274 31.3517 22.772 31.3287 22.8167C31.2858 22.906 31.2371 22.9893 31.1912 23.0786C31.1425 23.1649 31.0909 23.2512 31.0365 23.3345C30.9849 23.4178 30.9276 23.5011 30.8703 23.5815C30.6984 23.8285 30.5036 24.0636 30.2916 24.2838L27.2231 27.4769L22.8883 22.9655L20.0319 19.9926L20.0032 19.9628C16.038 15.8352 16.0323 9.1484 19.9889 5.0119C19.9946 5.00595 19.9975 5.00298 20.0004 5L27.2203 12.5171L30.2916 15.7102C31.9619 17.4511 32.406 19.9836 31.6238 22.1471L31.6181 22.1412Z" fill="url(#paint1_linear_108_1715)"/>
<path d="M22.7204 29.8606C22.3164 31.7265 21.4168 33.5001 20.0301 34.9583C20.0301 34.9613 20.0244 34.9643 20.0215 34.9673C20.0215 34.9673 20.0186 34.9702 20.0186 34.9732L19.9986 34.997L9.71023 24.2868C7.43253 21.918 7.43253 18.0761 9.71023 15.7073L12.6154 12.6838L12.7787 12.5141L19.9986 20.0312C22.5628 22.7006 23.471 26.4354 22.7261 29.8636L22.7204 29.8606Z" fill="url(#paint2_linear_108_1715)"/>
<path d="M31.6192 22.1412C31.5533 22.3257 31.4788 22.5072 31.3958 22.6828C31.3757 22.7274 31.3528 22.772 31.3299 22.8167C31.2869 22.906 31.2382 22.9893 31.1923 23.0786C31.1436 23.1649 31.0921 23.2512 31.0376 23.3345C30.9861 23.4178 30.9288 23.5011 30.8715 23.5815C30.6996 23.8285 30.5047 24.0636 30.2927 24.2838L20.0244 34.9732C20.0244 34.9732 20.033 34.9643 20.0387 34.9554C20.2995 34.6697 21.8924 32.8365 22.729 29.8576C23.2562 27.9799 23.4854 25.6527 22.8895 22.9685C22.5915 21.6204 22.0844 20.183 21.3051 18.6713C16.4718 9.29124 19.7379 5.30056 19.9872 5.01488C19.9929 5.00893 19.9958 5.00595 19.9986 5.00298H20.0015L27.2214 12.5141L30.2927 15.7073C31.963 17.4482 32.4071 19.9807 31.625 22.1441L31.6192 22.1412Z" fill="url(#paint3_linear_108_1715)"/>
<path d="M31.6174 22.1412C31.5515 22.3257 31.4771 22.5072 31.394 22.6828C31.3739 22.7274 31.351 22.772 31.3281 22.8167C31.2851 22.906 31.2364 22.9893 31.1906 23.0786C31.1418 23.1649 31.0903 23.2512 31.0358 23.3345C30.9843 23.4178 30.927 23.5011 30.8697 23.5815C30.6978 23.8285 30.5029 24.0636 30.2909 24.2838L27.2225 27.4769C29.2738 25.3432 29.314 22.1412 23.6412 16.237C20.2432 12.7016 19.6101 9.36564 19.6502 7.26168C19.6731 5.91658 19.9739 5.07142 19.9997 5L27.2196 12.5171L30.2909 15.7102C31.9612 17.4511 32.4053 19.9836 31.6232 22.1471L31.6174 22.1412Z" fill="url(#paint4_linear_108_1715)"/>
<path d="M20.0215 34.9673C20.0215 34.9673 20.0186 34.9702 20.0186 34.9732L19.9986 34.997L9.71023 24.2868C7.43253 21.918 7.43253 18.0761 9.71023 15.7073L12.6154 12.6838C11.8905 13.5081 9.28334 17.2964 15.4919 23.7571C16.1308 24.4207 16.6895 25.0575 17.1794 25.6616C21.9783 31.5986 20.1361 34.7887 20.0272 34.9702L20.0215 34.9673Z" fill="url(#paint5_linear_108_1715)"/>
</g>
<defs>
<filter id="filter0_d_108_1715" x="3.00195" y="0" width="33.998" height="39.997" filterUnits="userSpaceOnUse" color-interpolation-filters="sRGB">
<feFlood flood-opacity="0" result="BackgroundImageFix"/>
<feColorMatrix in="SourceAlpha" type="matrix" values="0 0 0 0 0 0 0 0 0 0 0 0 0 0 0 0 0 0 127 0" result="hardAlpha"/>
<feOffset/>
<feGaussianBlur stdDeviation="2.5"/>
<feComposite in2="hardAlpha" operator="out"/>
<feColorMatrix type="matrix" values="0 0 0 0 0 0 0 0 0 1 0 0 0 0 0.057971 0 0 0 0.7 0"/>
<feBlend mode="normal" in2="BackgroundImageFix" result="effect1_dropShadow_108_1715"/>
<feBlend mode="normal" in="SourceGraphic" in2="effect1_dropShadow_108_1715" result="shape"/>
</filter>
<linearGradient id="paint0_linear_108_1715" x1="27.3875" y1="16.359" x2="19.1716" y2="34.6597" gradientUnits="userSpaceOnUse">
<stop offset="0.35" stop-color="#2C7E70"/>
<stop offset="0.49" stop-color="#44947A"/>
<stop offset="0.78" stop-color="#81CC96"/>
<stop offset="0.91" stop-color="#9EE7A3"/>
<stop offset="0.94" stop-color="#A0E7A4"/>
<stop offset="0.96" stop-color="#A8E9AB"/>
<stop offset="0.97" stop-color="#B6EDB7"/>
<stop offset="0.98" stop-color="#CAF3C7"/>
<stop offset="0.99" stop-color="#E3FADB"/>
<stop offset="1" stop-color="#F5FFEA"/>
</linearGradient>
<linearGradient id="paint1_linear_108_1715" x1="20.5619" y1="7.46404" x2="32.9698" y2="34.4549" gradientUnits="userSpaceOnUse">
<stop stop-color="#2C7E70"/>
<stop offset="0.32" stop-color="#7BC693"/>
<stop offset="0.48" stop-color="#9EE7A3"/>
<stop offset="1" stop-color="#F5FFEA"/>
</linearGradient>
<linearGradient id="paint2_linear_108_1715" x1="13.0337" y1="25.8938" x2="20.9945" y2="21.1876" gradientUnits="userSpaceOnUse">
<stop stop-color="#F5FFEA"/>
<stop offset="0.02" stop-color="#E3FADB"/>
<stop offset="0.05" stop-color="#CAF3C7"/>
<stop offset="0.08" stop-color="#B6EDB7"/>
<stop offset="0.13" stop-color="#A8E9AB"/>
<stop offset="0.18" stop-color="#A0E7A4"/>
<stop offset="0.26" stop-color="#9EE7A3"/>
<stop offset="0.43" stop-color="#81CC96"/>
<stop offset="0.82" stop-color="#44947A"/>
<stop offset="1" stop-color="#2C7E70"/>
</linearGradient>
<linearGradient id="paint3_linear_108_1715" x1="19.9786" y1="-0.0203355" x2="25.8714" y2="24.5936" gradientUnits="userSpaceOnUse">
<stop stop-color="#F5FFEA"/>
<stop offset="0.02" stop-color="#E3FADB"/>
<stop offset="0.05" stop-color="#CAF3C7"/>
<stop offset="0.08" stop-color="#B6EDB7"/>
<stop offset="0.13" stop-color="#A8E9AB"/>
<stop offset="0.18" stop-color="#A0E7A4"/>
<stop offset="0.26" stop-color="#9EE7A3"/>
<stop offset="0.43" stop-color="#81CC96"/>
<stop offset="0.82" stop-color="#44947A"/>
<stop offset="1" stop-color="#2C7E70"/>
</linearGradient>
<linearGradient id="paint4_linear_108_1715" x1="17.6504" y1="-0.948814" x2="32.9244" y2="27.4076" gradientUnits="userSpaceOnUse">
<stop stop-color="#F5FFEA"/>
<stop offset="0.52" stop-color="#9EE7A3"/>
<stop offset="0.68" stop-color="#7BC693"/>
<stop offset="1" stop-color="#2C7E70"/>
</linearGradient>
<linearGradient id="paint5_linear_108_1715" x1="24.978" y1="30.2653" x2="7.35335" y2="18.1642" gradientUnits="userSpaceOnUse">
<stop stop-color="#F5FFEA"/>
<stop offset="0.45" stop-color="#9EE7A3"/>
<stop offset="1" stop-color="#2C7E70"/>
</linearGradient>
</defs>
</svg>
