<svg width="24" height="24" viewBox="0 0 24 24" fill="none" xmlns="http://www.w3.org/2000/svg">
<path d="M20 0H4C1.79086 0 0 1.79086 0 4V20C0 22.2091 1.79086 24 4 24H20C22.2091 24 24 22.2091 24 20V4C24 1.79086 22.2091 0 20 0Z" fill="#0085FF"/>
<path fill-rule="evenodd" clip-rule="evenodd" d="M20.2091 7.58657L12.2091 15.5866C12.1251 15.2454 11.9486 14.9339 11.6991 14.6866L10.9991 13.9766L17.3791 7.58657C17.5648 7.40062 17.7854 7.2531 18.0282 7.15245C18.271 7.05181 18.5313 7 18.7941 7C19.0569 7 19.3172 7.05181 19.56 7.15245C19.8028 7.2531 20.0233 7.40062 20.2091 7.58657ZM5.59906 12.8L10.0591 17.25L10.7691 16.58C10.8628 16.487 10.9372 16.3764 10.9879 16.2546C11.0387 16.1327 11.0649 16.002 11.0649 15.87C11.0649 15.738 11.0387 15.6073 10.9879 15.4854C10.9372 15.3636 10.8628 15.253 10.7691 15.16L5.59906 10C5.2326 10.3739 5.02734 10.8765 5.02734 11.4C5.02734 11.9235 5.2326 12.4261 5.59906 12.8Z" fill="white"/>
</svg>
