<svg viewBox="0 0 40 40" fill="none" xmlns="http://www.w3.org/2000/svg">
<g filter="url(#filter0_d_108_1714)">
<path d="M31.9164 20.9701C31.9078 21.0444 31.8935 21.1159 31.8792 21.1902C31.8792 21.2081 31.8734 21.226 31.8706 21.2438C31.8477 21.3599 31.8219 21.4729 31.7903 21.589C31.7416 21.7735 31.6843 21.958 31.6184 22.1395C31.6041 22.1871 31.5869 22.2317 31.5669 22.2763C31.5124 22.4132 31.4551 22.5471 31.3921 22.681C31.372 22.7257 31.3491 22.7703 31.3262 22.8149C31.2832 22.9042 31.2345 22.9875 31.1886 23.0768C31.1399 23.1631 31.0884 23.2494 31.0339 23.3327C30.9823 23.416 30.925 23.4993 30.8677 23.5797C30.6958 23.8266 30.501 24.0617 30.2889 24.2819L20.0198 34.9673L19.9998 34.9911C17.5614 32.4499 16.6187 28.9417 17.1775 25.6566C17.527 23.5945 18.4668 21.6187 19.9998 20.0238L27.2231 12.5074L30.2918 15.7032C30.5411 15.9621 30.7617 16.2388 30.9566 16.5275C31.0683 16.6911 31.1686 16.8637 31.2631 17.0363C31.3319 17.1672 31.3978 17.2982 31.458 17.4321C31.4981 17.5213 31.5382 17.6136 31.5697 17.7058C31.6041 17.7981 31.6385 17.8873 31.67 17.9796C31.733 18.1641 31.7846 18.3545 31.8305 18.5449C31.862 18.6848 31.8906 18.8276 31.9164 18.9704C31.925 19.021 31.9308 19.0686 31.9393 19.1163C31.9508 19.2115 31.9623 19.3067 31.9709 19.4019C32.0196 19.9197 32.0024 20.4434 31.9222 20.9581L31.9164 20.9701Z" fill="url(#paint0_linear_108_1714)"/>
<path d="M31.6173 22.1395C31.5514 22.3239 31.477 22.5055 31.3939 22.681C31.3738 22.7256 31.3509 22.7703 31.328 22.8149C31.285 22.9042 31.2363 22.9875 31.1904 23.0768C31.1417 23.1631 31.0901 23.2494 31.0357 23.3327C30.9841 23.416 30.9268 23.4993 30.8695 23.5796C30.6976 23.8266 30.5028 24.0617 30.2907 24.2819L27.222 27.4747L22.8869 22.9637L20.0302 19.9911L20.0015 19.9613C16.036 15.8342 16.0303 9.14799 19.9872 5.0119C19.9929 5.00595 19.9958 5.00298 19.9987 5L27.2192 12.5164L30.2907 15.7092C31.9612 17.4499 32.4053 19.9821 31.6231 22.1454L31.6173 22.1395Z" fill="url(#paint1_linear_108_1714)"/>
<path d="M22.7196 29.8582C22.3156 31.7239 21.4159 33.4973 20.0291 34.9554C20.0291 34.9583 20.0234 34.9613 20.0205 34.9643C20.0205 34.9643 20.0177 34.9673 20.0177 34.9702L19.9976 34.994L9.70842 24.2849C7.43053 21.9163 7.43053 18.0748 9.70842 15.7062L12.6138 12.683L12.7771 12.5134L19.9976 20.0297C22.562 22.6989 23.4703 26.4332 22.7253 29.8611L22.7196 29.8582Z" fill="url(#paint2_linear_108_1714)"/>
<path d="M31.6203 22.1395C31.5544 22.3239 31.4799 22.5055 31.3968 22.681C31.3767 22.7256 31.3538 22.7703 31.3309 22.8149C31.2879 22.9042 31.2392 22.9875 31.1933 23.0768C31.1446 23.1631 31.0931 23.2494 31.0386 23.3327C30.9871 23.416 30.9297 23.4993 30.8724 23.5796C30.7005 23.8266 30.5057 24.0617 30.2937 24.2819L20.0245 34.9702C20.0245 34.9702 20.0331 34.9613 20.0388 34.9524C20.2996 34.6667 21.8927 32.8338 22.7293 29.8552C23.2566 27.9776 23.4858 25.6507 22.8898 22.9667C22.5918 21.6187 22.0847 20.1815 21.3053 18.6699C16.4716 9.29081 19.738 5.30054 19.9873 5.01488C19.993 5.00893 19.9959 5.00595 19.9987 5.00298H20.0016L27.2221 12.5134L30.2937 15.7062C31.9641 17.4469 32.4082 19.9792 31.626 22.1424L31.6203 22.1395Z" fill="url(#paint3_linear_108_1714)"/>
<path d="M31.6184 22.1395C31.5525 22.3239 31.478 22.5055 31.3949 22.681C31.3749 22.7256 31.3519 22.7703 31.329 22.8149C31.286 22.9042 31.2373 22.9875 31.1915 23.0768C31.1428 23.1631 31.0912 23.2494 31.0368 23.3327C30.9852 23.416 30.9279 23.4993 30.8706 23.5796C30.6987 23.8266 30.5038 24.0617 30.2918 24.2819L27.2231 27.4747C29.2746 25.3412 29.3147 22.1395 23.6415 16.2359C20.2433 12.7009 19.6101 9.3652 19.6502 7.26146C19.6731 5.91648 19.974 5.07141 19.9997 5L27.2202 12.5164L30.2918 15.7092C31.9623 17.4499 32.4064 19.9821 31.6242 22.1454L31.6184 22.1395Z" fill="url(#paint4_linear_108_1714)"/>
<path d="M20.0205 34.9643C20.0205 34.9643 20.0177 34.9673 20.0177 34.9702L19.9976 34.994L9.70842 24.2849C7.43053 21.9163 7.43053 18.0748 9.70842 15.7062L12.6138 12.683C11.8889 13.5072 9.28149 17.2952 15.4905 23.7552C16.1295 24.4188 16.6882 25.0555 17.1782 25.6596C21.9775 31.5959 20.1351 34.7858 20.0263 34.9673L20.0205 34.9643Z" fill="url(#paint5_linear_108_1714)"/>
</g>
<defs>
<filter id="filter0_d_108_1714" x="3" y="0" width="34" height="39.994" filterUnits="userSpaceOnUse" color-interpolation-filters="sRGB">
<feFlood flood-opacity="0" result="BackgroundImageFix"/>
<feColorMatrix in="SourceAlpha" type="matrix" values="0 0 0 0 0 0 0 0 0 0 0 0 0 0 0 0 0 0 127 0" result="hardAlpha"/>
<feOffset/>
<feGaussianBlur stdDeviation="2.5"/>
<feComposite in2="hardAlpha" operator="out"/>
<feColorMatrix type="matrix" values="0 0 0 0 0.720106 0 0 0 0 0.2125 0 0 0 0 1 0 0 0 1 0"/>
<feBlend mode="normal" in2="BackgroundImageFix" result="effect1_dropShadow_108_1714"/>
<feBlend mode="normal" in="SourceGraphic" in2="effect1_dropShadow_108_1714" result="shape"/>
</filter>
<linearGradient id="paint0_linear_108_1714" x1="17.0141" y1="23.7522" x2="31.9909" y2="23.7522" gradientUnits="userSpaceOnUse">
<stop stop-color="#471091"/>
<stop offset="0.15" stop-color="#4D1396"/>
<stop offset="0.35" stop-color="#5F1DA6"/>
<stop offset="0.59" stop-color="#7D2EC0"/>
<stop offset="0.86" stop-color="#A645E4"/>
<stop offset="1" stop-color="#BF54FA"/>
</linearGradient>
<linearGradient id="paint1_linear_108_1714" x1="33.1102" y1="12.6592" x2="10.3452" y2="20.6034" gradientUnits="userSpaceOnUse">
<stop stop-color="#471091"/>
<stop offset="0.15" stop-color="#4D1396"/>
<stop offset="0.35" stop-color="#5F1DA6"/>
<stop offset="0.59" stop-color="#7D2EC0"/>
<stop offset="0.86" stop-color="#A645E4"/>
<stop offset="1" stop-color="#BF54FA"/>
</linearGradient>
<linearGradient id="paint2_linear_108_1714" x1="25.7769" y1="15.1408" x2="12.9942" y2="26.0074" gradientUnits="userSpaceOnUse">
<stop stop-color="#471091"/>
<stop offset="0.15" stop-color="#4D1396"/>
<stop offset="0.35" stop-color="#5F1DA6"/>
<stop offset="0.59" stop-color="#7D2EC0"/>
<stop offset="0.86" stop-color="#A645E4"/>
<stop offset="1" stop-color="#BF54FA"/>
</linearGradient>
<linearGradient id="paint3_linear_108_1714" x1="25.2594" y1="7.24658" x2="25.5128" y2="31.6612" gradientUnits="userSpaceOnUse">
<stop stop-color="#BF54FA"/>
<stop offset="0.15" stop-color="#B950F4"/>
<stop offset="0.35" stop-color="#A847E6"/>
<stop offset="0.58" stop-color="#8C37CD"/>
<stop offset="0.83" stop-color="#6621AC"/>
<stop offset="1" stop-color="#471091"/>
</linearGradient>
<linearGradient id="paint4_linear_108_1714" x1="27.5898" y1="0.762746" x2="22.6009" y2="34.2477" gradientUnits="userSpaceOnUse">
<stop offset="0.04" stop-color="white"/>
<stop offset="0.11" stop-color="#F0D7FD"/>
<stop offset="0.18" stop-color="#E3B4FC"/>
<stop offset="0.26" stop-color="#D796FB"/>
<stop offset="0.35" stop-color="#CE7EFB"/>
<stop offset="0.45" stop-color="#C76BFA"/>
<stop offset="0.56" stop-color="#C25DFA"/>
<stop offset="0.71" stop-color="#BF56FA"/>
<stop offset="1" stop-color="#BF54FA"/>
</linearGradient>
<linearGradient id="paint5_linear_108_1714" x1="9.43049" y1="15.73" x2="22.1382" y2="35.6097" gradientUnits="userSpaceOnUse">
<stop stop-color="#5406A2"/>
<stop offset="0.6" stop-color="#BF54FA"/>
<stop offset="0.65" stop-color="#C058FA"/>
<stop offset="0.71" stop-color="#C666FA"/>
<stop offset="0.78" stop-color="#CE7EFB"/>
<stop offset="0.85" stop-color="#DB9FFC"/>
<stop offset="0.92" stop-color="#EAC9FD"/>
<stop offset="1" stop-color="white"/>
</linearGradient>
</defs>
</svg>
