<svg viewBox="0 0 24 24" fill="currentColor" xmlns="http://www.w3.org/2000/svg">
<path fill-rule="evenodd" clip-rule="evenodd" d="M2 6.00001C2 6.53044 2.21071 7.03915 2.58579 7.41422C2.96086 7.78929 3.46957 8.00001 4 8.00001H7.18C7.4159 8.66722 7.88007 9.22956 8.49048 9.58764C9.10089 9.94571 9.81824 10.0765 10.5157 9.9568C11.2132 9.83713 11.846 9.47473 12.3021 8.93367C12.7582 8.3926 13.0084 7.70769 13.0084 7.00001C13.0084 6.29232 12.7582 5.60741 12.3021 5.06635C11.846 4.52528 11.2132 4.16288 10.5157 4.04321C9.81824 3.92354 9.10089 4.0543 8.49048 4.41237C7.88007 4.77045 7.4159 5.33279 7.18 6.00001H2ZM10 6.00001C10.1978 6.00001 10.3911 6.05866 10.5556 6.16854C10.72 6.27842 10.8482 6.4346 10.9239 6.61732C10.9996 6.80005 11.0194 7.00112 10.9808 7.1951C10.9422 7.38908 10.847 7.56726 10.7071 7.70711C10.5673 7.84697 10.3891 7.94221 10.1951 7.98079C10.0011 8.01938 9.80004 7.99957 9.61732 7.92389C9.43459 7.8482 9.27841 7.72003 9.16853 7.55558C9.05865 7.39113 9 7.19779 9 7.00001C9 6.73479 9.10536 6.48044 9.29289 6.2929C9.48043 6.10536 9.73478 6.00001 10 6.00001ZM14.0001 7C13.9949 7.33784 13.9479 7.67373 13.8601 8H22.0001V7C22.0001 6.73478 21.8947 6.48043 21.7072 6.29289C21.5196 6.10536 21.2653 6 21.0001 6H13.8301C13.928 6.32499 13.9851 6.6609 14.0001 7ZM22.0001 18C22.0001 17.4696 21.7894 16.9609 21.4143 16.5858C21.0393 16.2107 20.5306 16 20.0001 16H16.8201C16.5842 15.3328 16.1201 14.7705 15.5096 14.4124C14.8992 14.0543 14.1819 13.9235 13.4844 14.0432C12.7869 14.1629 12.1542 14.5253 11.698 15.0663C11.2419 15.6074 10.9917 16.2923 10.9917 17C10.9917 17.7077 11.2419 18.3926 11.698 18.9337C12.1542 19.4747 12.7869 19.8371 13.4844 19.9568C14.1819 20.0765 14.8992 19.9457 15.5096 19.5876C16.1201 19.2296 16.5842 18.6672 16.8201 18H22.0001ZM14.0001 18C13.8023 18 13.609 17.9414 13.4446 17.8315C13.2801 17.7216 13.1519 17.5654 13.0762 17.3827C13.0006 17.2 12.9808 16.9989 13.0193 16.8049C13.0579 16.6109 13.1532 16.4328 13.293 16.2929C13.4329 16.153 13.6111 16.0578 13.805 16.0192C13.999 15.9806 14.2001 16.0004 14.3828 16.0761C14.5655 16.1518 14.7217 16.28 14.8316 16.4444C14.9415 16.6089 15.0001 16.8022 15.0001 17C15.0001 17.2652 14.8948 17.5196 14.7072 17.7071C14.5197 17.8947 14.2653 18 14.0001 18ZM10 17C10.0052 16.6622 10.0522 16.3263 10.14 16H2V17C2 17.2652 2.10536 17.5196 2.29289 17.7071C2.48043 17.8946 2.73478 18 3 18H10.17C10.0721 17.675 10.015 17.3391 10 17Z"/>
</svg>
