<svg viewBox="0 0 40 40" fill="none" xmlns="http://www.w3.org/2000/svg">
<g filter="url(#filter0_d_108_1711)">
<path d="M31.9204 20.9671C31.909 21.0355 31.8975 21.1159 31.8746 21.1873C31.8746 21.2111 31.8631 21.223 31.8631 21.2438C31.8402 21.3599 31.8173 21.4759 31.7858 21.589C31.74 21.7735 31.6741 21.9579 31.6197 22.1424C31.6082 22.19 31.5853 22.2347 31.5653 22.2823C31.5108 22.4221 31.4536 22.559 31.3877 22.687L31.3218 22.8268C31.276 22.9191 31.233 22.9994 31.1872 23.0798C31.1414 23.1601 31.0869 23.2523 31.0325 23.3327L30.8664 23.5737C30.6888 23.8266 30.4998 24.0587 30.2878 24.2789L20.0138 34.9643L20.0024 35C16.0383 30.858 16.0383 24.1658 20.0024 20.0357L27.2202 12.5253L30.2849 15.7211C30.5284 15.974 30.7518 16.2507 30.9523 16.5513C31.064 16.712 31.1643 16.8846 31.2645 17.0601C31.3304 17.1881 31.3991 17.3249 31.465 17.4529C31.5108 17.5451 31.5423 17.6374 31.5767 17.7296L31.677 18.0064C31.7428 18.1908 31.7887 18.3753 31.8316 18.5717C31.866 18.7116 31.8861 18.8604 31.9204 18.9972C31.9319 19.0448 31.9319 19.1014 31.9433 19.146C31.9548 19.2383 31.9663 19.3305 31.9777 19.4346C32.0235 19.9316 32.0006 20.4612 31.9233 20.9701L31.9204 20.9671Z" fill="url(#paint0_linear_108_1711)"/>
<path d="M31.6193 22.1454C31.5534 22.3299 31.4847 22.5144 31.3959 22.687L31.33 22.8268C31.2842 22.9191 31.2412 22.9994 31.1954 23.0797C31.1496 23.1601 31.0951 23.2523 31.0407 23.3327L30.8746 23.5737C30.697 23.8266 30.508 24.0587 30.296 24.2789L27.2198 27.4866L22.8891 22.9756L20.0249 20L19.9905 19.9643C16.0264 15.8342 16.015 9.15394 19.9791 5.0119C19.9905 5.0119 19.9905 5 19.9905 5L27.2084 12.5104L30.2731 15.7062C31.9057 17.4023 32.427 19.9167 31.6164 22.1454H31.6193Z" fill="url(#paint1_linear_108_1711)"/>
<path d="M22.7229 29.8641C22.3018 31.7923 21.3681 33.5568 20.0362 34.9643L20.0247 34.9762L20.0018 35L9.7078 24.2938C7.43073 21.9282 7.43073 18.0867 9.7078 15.7092L12.6064 12.686L12.7725 12.5134L19.9904 20.0238C22.4794 22.6096 23.4991 26.3112 22.7229 29.8641Z" fill="url(#paint2_linear_108_1711)"/>
<path d="M31.6205 22.1454C31.5546 22.3299 31.4859 22.5144 31.3971 22.687L31.3312 22.8268C31.2854 22.9191 31.2424 22.9994 31.1966 23.0797C31.1507 23.1601 31.0963 23.2523 31.0419 23.3327L30.8758 23.5737C30.6982 23.8266 30.5092 24.0587 30.2972 24.2789L20.0347 34.9643L20.0461 34.9524C20.301 34.6638 21.9021 32.8308 22.7328 29.8522C23.3543 27.6146 23.4116 25.2371 22.8874 22.9637C22.5437 21.464 22.011 20.0208 21.3006 18.6729C16.4687 9.29379 19.7339 5.30054 19.9802 5.0119C19.9917 5.0119 19.9917 5 19.9917 5L27.2096 12.5104L30.2743 15.7062C31.9069 17.4023 32.4282 19.9167 31.6176 22.1454H31.6205Z" fill="url(#paint3_linear_108_1711)"/>
<path d="M31.6204 22.1454C31.5546 22.3299 31.4858 22.5144 31.397 22.687L31.3311 22.8268C31.2853 22.9191 31.2423 22.9994 31.1965 23.0797C31.1507 23.1601 31.0963 23.2523 31.0419 23.3327L30.8757 23.5737C30.6981 23.8266 30.5091 24.0587 30.2972 24.2789L27.221 27.4866C29.2746 25.3531 29.309 22.1573 23.6435 16.2478C20.2437 12.7068 19.6107 9.38306 19.6565 7.27038C19.6795 5.91946 19.9773 5.07737 20.0003 5.00893L27.2181 12.5193L30.2828 15.7151C31.904 17.3993 32.4253 19.9137 31.6147 22.1424L31.6204 22.1454Z" fill="url(#paint4_linear_108_1711)"/>
<path d="M20.0247 34.9732L20.0018 34.997L9.7078 24.2908C7.43073 21.9252 7.43073 18.0837 9.7078 15.7062L12.6064 12.683C11.8846 13.5013 9.27529 17.2982 15.4821 23.7582C16.1265 24.4277 16.6822 25.0615 17.1691 25.6626C21.9782 31.5929 20.1336 34.7887 20.0247 34.9732Z" fill="url(#paint5_linear_108_1711)"/>
</g>
<defs>
<filter id="filter0_d_108_1711" x="3" y="0" width="34.002" height="40" filterUnits="userSpaceOnUse" color-interpolation-filters="sRGB">
<feFlood flood-opacity="0" result="BackgroundImageFix"/>
<feColorMatrix in="SourceAlpha" type="matrix" values="0 0 0 0 0 0 0 0 0 0 0 0 0 0 0 0 0 0 127 0" result="hardAlpha"/>
<feOffset/>
<feGaussianBlur stdDeviation="2.5"/>
<feComposite in2="hardAlpha" operator="out"/>
<feColorMatrix type="matrix" values="0 0 0 0 0.882353 0 0 0 0 0.137255 0 0 0 0 0.121569 0 0 0 1 0"/>
<feBlend mode="normal" in2="BackgroundImageFix" result="effect1_dropShadow_108_1711"/>
<feBlend mode="normal" in="SourceGraphic" in2="effect1_dropShadow_108_1711" result="shape"/>
</filter>
<linearGradient id="paint0_linear_108_1711" x1="33.175" y1="10.5316" x2="19.6854" y2="28.5456" gradientUnits="userSpaceOnUse">
<stop stop-color="#EF2520"/>
<stop offset="0.32" stop-color="#E0231E"/>
<stop offset="0.48" stop-color="#9A1B16"/>
<stop offset="1" stop-color="#5C130E"/>
</linearGradient>
<linearGradient id="paint1_linear_108_1711" x1="39.9141" y1="22.7078" x2="15.1999" y2="13.6296" gradientUnits="userSpaceOnUse">
<stop stop-color="#EF2520"/>
<stop offset="0.32" stop-color="#E0231E"/>
<stop offset="0.64" stop-color="#9A1B16"/>
<stop offset="0.72" stop-color="#941A15"/>
<stop offset="0.83" stop-color="#851813"/>
<stop offset="0.94" stop-color="#6B1510"/>
<stop offset="1" stop-color="#5C130E"/>
</linearGradient>
<linearGradient id="paint2_linear_108_1711" x1="25.3608" y1="17.1285" x2="11.2004" y2="26.8157" gradientUnits="userSpaceOnUse">
<stop stop-color="#EF2520"/>
<stop offset="0.32" stop-color="#E0231E"/>
<stop offset="0.57" stop-color="#9A1B16"/>
<stop offset="1" stop-color="#5C130E"/>
</linearGradient>
<linearGradient id="paint3_linear_108_1711" x1="13.4727" y1="-4.27792" x2="29.4424" y2="32.4683" gradientUnits="userSpaceOnUse">
<stop stop-color="#EF2520"/>
<stop offset="0.23" stop-color="#E0231E"/>
<stop offset="0.56" stop-color="#9A1B16"/>
<stop offset="0.63" stop-color="#891813"/>
<stop offset="0.77" stop-color="#701510"/>
<stop offset="0.9" stop-color="#61130E"/>
<stop offset="1" stop-color="#5C130E"/>
</linearGradient>
<linearGradient id="paint4_linear_108_1711" x1="16.6978" y1="13.5816" x2="39.3" y2="21.6571" gradientUnits="userSpaceOnUse">
<stop stop-color="#EF2520"/>
<stop offset="0.3" stop-color="#E0231E"/>
<stop offset="0.37" stop-color="#D7211C"/>
<stop offset="0.49" stop-color="#BF1F1A"/>
<stop offset="0.62" stop-color="#9A1B16"/>
<stop offset="1" stop-color="#5C130E"/>
</linearGradient>
<linearGradient id="paint5_linear_108_1711" x1="2.68757" y1="23.294" x2="21.7167" y2="23.9999" gradientUnits="userSpaceOnUse">
<stop stop-color="#5C130E"/>
<stop offset="0.38" stop-color="#9A1B16"/>
<stop offset="0.51" stop-color="#BF1F1A"/>
<stop offset="0.63" stop-color="#D7211C"/>
<stop offset="0.7" stop-color="#E0231E"/>
<stop offset="1" stop-color="#EF2520"/>
</linearGradient>
</defs>
</svg>
