<svg viewBox="0 0 24 24" fill="currentColor" xmlns="http://www.w3.org/2000/svg">
<path d="M5.99832 13.0958C6.00323 12.0411 6.28607 11.0063 6.81832 10.0958C7.05087 9.71379 7.14866 9.26487 7.0961 8.82076C7.04353 8.37664 6.84362 7.96296 6.52832 7.6458L6.33832 7.4558C5.3343 8.46153 4.61631 9.71657 4.25818 11.0918C3.90006 12.4671 3.91474 13.9129 4.30071 15.2806C4.68668 16.6483 5.43001 17.8885 6.45424 18.8736C7.47848 19.8588 8.74665 20.5533 10.1283 20.8858C10.2316 20.9117 10.3394 20.9136 10.4436 20.8915C10.5478 20.8694 10.6455 20.8238 10.7294 20.7583C10.8133 20.6927 10.8811 20.6089 10.9277 20.5131C10.9743 20.4174 10.9985 20.3123 10.9983 20.2058V19.0058C9.60126 18.7697 8.33285 18.0467 7.41771 16.965C6.50257 15.8833 5.99976 14.5127 5.99832 13.0958ZM19.9983 13.0958C19.9983 10.9741 19.1555 8.93923 17.6552 7.43894C16.1549 5.93865 14.1201 5.0958 11.9983 5.0958H11.8183L12.9083 4.0058L12.2083 3.2958C12.1154 3.20207 12.0048 3.12768 11.8829 3.07691C11.761 3.02614 11.6303 3 11.4983 3C11.3663 3 11.2356 3.02614 11.1137 3.07691C10.9919 3.12768 10.8813 3.20207 10.7883 3.2958L8.70832 5.3858C8.6146 5.47876 8.5402 5.58936 8.48943 5.71122C8.43866 5.83308 8.41253 5.96379 8.41253 6.0958C8.41253 6.22781 8.43866 6.35852 8.48943 6.48038C8.5402 6.60223 8.6146 6.71284 8.70832 6.8058L11.4983 9.5958L11.8283 9.2658C11.971 9.12447 12.0843 8.95625 12.1616 8.77088C12.2389 8.58551 12.2787 8.38665 12.2787 8.1858C12.2787 7.98495 12.2389 7.78609 12.1616 7.60072C12.0843 7.41534 11.971 7.24713 11.8283 7.1058H11.9983C13.3927 7.11166 14.7415 7.60299 15.8129 8.49535C16.8844 9.38772 17.6116 10.6254 17.8695 11.9957C18.1275 13.366 17.9001 14.7834 17.2265 16.0043C16.5529 17.2252 15.4751 18.1733 14.1783 18.6858C13.8274 18.8435 13.5295 19.0991 13.3202 19.4219C13.1109 19.7448 12.9991 20.1211 12.9983 20.5058V21.0258C14.9303 20.7824 16.7073 19.8427 17.9959 18.3828C19.2846 16.9229 19.9966 15.0431 19.9983 13.0958Z"/>
</svg>
